REM DIRINDEX 1\5,1\2\6,1\2\7,1\3\8,1\3\9,1\3\10,1\3\11,1\4\12,1\4\13,1\4\14
REM DIRNAME cjc042,folder01,folder02,folder03,folder04,folder05,folder06,folder07,folder08,folder09,folder10,folder11,folder12,folder13
TITLE ""
FILE "4Q_t_235-250.mp3" MP3
  TRACK 01 AUDIO
    TITLE "5:cjc042_1463"
    INDEX 01 00:00:00
  TRACK 02 AUDIO
    TITLE "0:"
    INDEX 01 00:01:07
  TRACK 03 AUDIO
    TITLE "6:cjc042_1464"
    INDEX 01 00:01:50
  TRACK 04 AUDIO
    TITLE "0:"
    INDEX 01 00:02:57
  TRACK 05 AUDIO
    TITLE "7:cjc042_1465"
    INDEX 01 00:03:29
  TRACK 06 AUDIO
    TITLE "0:"
    INDEX 01 00:06:51
  TRACK 07 AUDIO
    TITLE "6:cjc042_1466"
    INDEX 01 00:07:23
  TRACK 08 AUDIO
    TITLE "0:"
    INDEX 01 00:08:36
  TRACK 09 AUDIO
    TITLE "7:cjc042_1467"
    INDEX 01 00:09:08
  TRACK 10 AUDIO
    TITLE "0:"
    INDEX 01 00:12:60
  TRACK 11 AUDIO
    TITLE "6:cjc042_1468"
    INDEX 01 00:13:30
  TRACK 12 AUDIO
    TITLE "0:"
    INDEX 01 00:14:51
  TRACK 13 AUDIO
    TITLE "7:cjc042_1469"
    INDEX 01 00:15:27
  TRACK 14 AUDIO
    TITLE "0:"
    INDEX 01 00:16:36
  TRACK 15 AUDIO
    TITLE "6:cjc042_1470"
    INDEX 01 00:17:06
  TRACK 16 AUDIO
    TITLE "0:"
    INDEX 01 00:18:13
  TRACK 17 AUDIO
    TITLE "7:cjc042_1471"
    INDEX 01 00:18:58
  TRACK 18 AUDIO
    TITLE "0:"
    INDEX 01 00:19:67
  TRACK 19 AUDIO
    TITLE "6:cjc042_1472"
    INDEX 01 00:20:39
  TRACK 20 AUDIO
    TITLE "0:"
    INDEX 01 00:21:51
  TRACK 21 AUDIO
    TITLE "7:cjc042_1473"
    INDEX 01 00:22:30
  TRACK 22 AUDIO
    TITLE "0:"
    INDEX 01 00:24:31
  TRACK 23 AUDIO
    TITLE "6:cjc042_1474"
    INDEX 01 00:25:03
  TRACK 24 AUDIO
    TITLE "0:"
    INDEX 01 00:26:22
  TRACK 25 AUDIO
    TITLE "7:cjc042_1475"
    INDEX 01 00:26:71
  TRACK 26 AUDIO
    TITLE "0:"
    INDEX 01 00:28:55
  TRACK 27 AUDIO
    TITLE "6:cjc042_1476"
    INDEX 01 00:29:31
  TRACK 28 AUDIO
    TITLE "0:"
    INDEX 01 00:30:30
  TRACK 29 AUDIO
    TITLE "7:cjc042_1477"
    INDEX 01 00:31:14
  TRACK 30 AUDIO
    TITLE "0:"
    INDEX 01 00:32:64
  TRACK 31 AUDIO
    TITLE "6:cjc042_1478"
    INDEX 01 00:33:32
  TRACK 32 AUDIO
    TITLE "0:"
    INDEX 01 00:34:40
  TRACK 33 AUDIO
    TITLE "7:cjc042_1479"
    INDEX 01 00:34:42
  TRACK 34 AUDIO
    TITLE "0:"
    INDEX 01 00:35:43
  TRACK 35 AUDIO
    TITLE "6:cjc042_1480"
    INDEX 01 00:36:17
  TRACK 36 AUDIO
    TITLE "0:"
    INDEX 01 00:37:34
  TRACK 37 AUDIO
    TITLE "7:cjc042_1481"
    INDEX 01 00:38:04
  TRACK 38 AUDIO
    TITLE "0:"
    INDEX 01 00:40:07
  TRACK 39 AUDIO
    TITLE "6:cjc042_1482"
    INDEX 01 00:40:52
  TRACK 40 AUDIO
    TITLE "0:"
    INDEX 01 00:41:69
  TRACK 41 AUDIO
    TITLE "7:cjc042_1483"
    INDEX 01 00:42:41
  TRACK 42 AUDIO
    TITLE "0:"
    INDEX 01 00:44:28
  TRACK 43 AUDIO
    TITLE "6:cjc042_1484"
    INDEX 01 00:45:04
  TRACK 44 AUDIO
    TITLE "0:"
    INDEX 01 00:46:06
  TRACK 45 AUDIO
    TITLE "7:cjc042_1485"
    INDEX 01 00:46:53
  TRACK 46 AUDIO
    TITLE "0:"
    INDEX 01 00:49:49
  TRACK 47 AUDIO
    TITLE "6:cjc042_1486"
    INDEX 01 00:50:19
  TRACK 48 AUDIO
    TITLE "0:"
    INDEX 01 00:51:24
  TRACK 49 AUDIO
    TITLE "7:cjc042_1487"
    INDEX 01 00:52:02
  TRACK 50 AUDIO
    TITLE "0:"
    INDEX 01 00:54:42
  TRACK 51 AUDIO
    TITLE "6:cjc042_1488"
    INDEX 01 00:55:10
  TRACK 52 AUDIO
    TITLE "0:"
    INDEX 01 00:56:10
  TRACK 53 AUDIO
    TITLE "7:cjc042_1489"
    INDEX 01 00:56:59
  TRACK 54 AUDIO
    TITLE "0:"
    INDEX 01 00:58:60
  TRACK 55 AUDIO
    TITLE "6:cjc042_1490"
    INDEX 01 00:59:39
  TRACK 56 AUDIO
    TITLE "0:"
    INDEX 01 01:00:59
  TRACK 57 AUDIO
    TITLE "7:cjc042_1491"
    INDEX 01 01:01:34
  TRACK 58 AUDIO
    TITLE "0:"
    INDEX 01 01:03:43
  TRACK 59 AUDIO
    TITLE "6:cjc042_1492"
    INDEX 01 01:04:15
  TRACK 60 AUDIO
    TITLE "0:"
    INDEX 01 01:05:48
  TRACK 61 AUDIO
    TITLE "7:cjc042_1493"
    INDEX 01 01:06:22
  TRACK 62 AUDIO
    TITLE "0:"
    INDEX 01 01:08:19
  TRACK 63 AUDIO
    TITLE "6:cjc042_1494"
    INDEX 01 01:08:62
  TRACK 64 AUDIO
    TITLE "0:"
    INDEX 01 01:09:73
  TRACK 65 AUDIO
    TITLE "7:cjc042_1495"
    INDEX 01 01:10:45
  TRACK 66 AUDIO
    TITLE "0:"
    INDEX 01 01:15:27
